
<svg version="1.1" xmlns="http://www.w3.org/2000/svg" xmlns:xlink="http://www.w3.org/1999/xlink" x="0px" y="0px" width="100px"
	 height="100px" viewBox="0 0 100 100" enable-background="new 0 0 100 100" xml:space="preserve">
	<circle fill="none" stroke="#fff" stroke-width="5" stroke-miterlimit="10" cx="49.667" cy="49.666" r="47.5"/>

	<path fill="#fff" d="M31.125,27.25c0,0-9.25,9.583-2.625,22.417c0,0,11.375,25.333,32.375,25.458c0,0,6.375,0.25,11.375-6.75
		c0,0,2.75-2.375-1.375-6.5l-5.25-4.125c0,0-3.5-2.75-7.5,0.625l-3.25,2.75c0,0-2.625,2.5-7.25-2.125c0,0-6.875-6-8.375-10.375
		c0,0-3-3.375,1-6.875l3.625-2.875c0,0,2.75-2.125-0.625-7.5l-3.375-5c0,0-3.473-3.884-6.625-0.875L31.125,27.25z"/>
</svg>
