<?xml version="1.0" encoding="utf-8"?>
<!-- Generator: Adobe Illustrator 16.0.0, SVG Export Plug-In . SVG Version: 6.00 Build 0)  -->
<!DOCTYPE svg PUBLIC "-//W3C//DTD SVG 1.1//EN" "http://www.w3.org/Graphics/SVG/1.1/DTD/svg11.dtd">
<svg version="1.1" id="Layer_2" xmlns="http://www.w3.org/2000/svg" xmlns:xlink="http://www.w3.org/1999/xlink" x="0px" y="0px"
	 width="84px" height="84.333px" viewBox="0 0 84 84.333" enable-background="new 0 0 84 84.333" xml:space="preserve">
<circle fill="none" stroke="#00D1B1" stroke-width="3" stroke-miterlimit="10" cx="42" cy="41.666" r="39"/>
<g>
	<path fill="#00D1B1" d="M50.732,21.264c-2.602,0-4.721-2.117-4.721-4.72s2.119-4.72,4.721-4.72c2.604,0,4.721,2.118,4.721,4.72
		S53.336,21.264,50.732,21.264z M50.732,13.896c-1.459,0-2.648,1.188-2.648,2.648c0,1.46,1.189,2.647,2.648,2.647
		s2.648-1.188,2.648-2.647C53.381,15.084,52.191,13.896,50.732,13.896z"/>
	<path fill="#00D1B1" d="M25.29,32.202c-1.968,0-3.569-1.601-3.569-3.569s1.601-3.569,3.569-3.569c1.968,0,3.569,1.601,3.569,3.569
		S27.257,32.202,25.29,32.202z M25.29,27.136c-0.826,0-1.497,0.671-1.497,1.497c0,0.825,0.671,1.497,1.497,1.497
		c0.825,0,1.497-0.671,1.497-1.497C26.786,27.807,26.115,27.136,25.29,27.136z"/>
	<path fill="#00D1B1" d="M52.805,48.32c-2.666,0-4.836-2.169-4.836-4.835s2.17-4.836,4.836-4.836s4.836,2.17,4.836,4.836
		S55.471,48.32,52.805,48.32z M52.805,40.721c-1.523,0-2.764,1.239-2.764,2.764c0,1.523,1.24,2.763,2.764,2.763
		s2.764-1.239,2.764-2.763C55.568,41.96,54.328,40.721,52.805,40.721z"/>
	<path fill="#00D1B1" d="M40.371,39.935c-4.38,0-7.944-3.564-7.944-7.944s3.563-7.943,7.944-7.943c4.381,0,7.943,3.563,7.943,7.943
		S44.752,39.935,40.371,39.935z M40.371,26.12c-3.238,0-5.872,2.634-5.872,5.871s2.634,5.872,5.872,5.872
		c3.238,0,5.871-2.635,5.871-5.872S43.609,26.12,40.371,26.12z"/>
	
		<rect x="27.725" y="28.345" transform="matrix(0.9665 0.2565 -0.2565 0.9665 8.5625 -6.8775)" fill="#00D1B1" width="5.836" height="2.072"/>
	
		<rect x="44.32" y="38.033" transform="matrix(0.7732 0.6341 -0.6341 0.7732 35.5342 -21.2338)" fill="#00D1B1" width="6.274" height="2.071"/>
	
		<rect x="45.449" y="18.913" transform="matrix(0.781 0.6246 -0.6246 0.781 24.5153 -24.0072)" fill="#00D1B1" width="2.073" height="8.072"/>
	<path fill="#00D1B1" d="M40.416,36.691c-1.679,0-3.162-0.839-3.961-1.559c-0.284-0.255-0.307-0.692-0.051-0.976
		c0.254-0.283,0.69-0.307,0.974-0.053l0,0c0.122,0.107,3.025,2.631,5.737,0.018c0.275-0.265,0.711-0.257,0.977,0.018
		c0.266,0.275,0.258,0.713-0.018,0.978C42.871,36.277,41.595,36.691,40.416,36.691z"/>
</g>
<g>
	<path fill="#00D1B1" d="M27.847,58.5c0.429,0.264,1.056,0.484,1.716,0.484c0.979,0,1.551-0.518,1.551-1.266
		c0-0.693-0.396-1.089-1.397-1.475c-1.21-0.429-1.958-1.056-1.958-2.101c0-1.155,0.957-2.014,2.398-2.014
		c0.759,0,1.309,0.176,1.639,0.363l-0.264,0.781c-0.242-0.133-0.737-0.353-1.408-0.353c-1.012,0-1.397,0.605-1.397,1.111
		c0,0.693,0.451,1.034,1.475,1.431c1.254,0.483,1.892,1.089,1.892,2.178c0,1.145-0.847,2.135-2.596,2.135
		c-0.715,0-1.497-0.209-1.893-0.474L27.847,58.5z"/>
	<path fill="#00D1B1" d="M38.187,56.96c0,1.969-1.364,2.827-2.651,2.827c-1.441,0-2.552-1.057-2.552-2.739
		c0-1.782,1.166-2.827,2.641-2.827C37.153,54.221,38.187,55.332,38.187,56.96z M33.962,57.015c0,1.166,0.671,2.046,1.618,2.046
		c0.924,0,1.617-0.869,1.617-2.068c0-0.901-0.451-2.046-1.595-2.046C34.458,54.947,33.962,56.003,33.962,57.015z"/>
	<path fill="#00D1B1" d="M43.203,59.468c-0.253,0.132-0.814,0.309-1.529,0.309c-1.606,0-2.651-1.09-2.651-2.718
		c0-1.64,1.122-2.827,2.86-2.827c0.572,0,1.078,0.143,1.342,0.274l-0.22,0.748c-0.231-0.132-0.594-0.253-1.122-0.253
		c-1.221,0-1.881,0.902-1.881,2.014c0,1.232,0.792,1.991,1.849,1.991c0.55,0,0.914-0.143,1.188-0.264L43.203,59.468z"/>
	<path fill="#00D1B1" d="M45.414,52.845c0.01,0.33-0.231,0.595-0.617,0.595c-0.34,0-0.582-0.265-0.582-0.595
		c0-0.341,0.252-0.604,0.604-0.604C45.183,52.241,45.414,52.504,45.414,52.845z M44.336,59.667v-5.325h0.968v5.325H44.336z"/>
	<path fill="#00D1B1" d="M49.857,59.667l-0.076-0.671h-0.033c-0.297,0.418-0.869,0.792-1.629,0.792
		c-1.078,0-1.627-0.759-1.627-1.529c0-1.287,1.144-1.991,3.201-1.98v-0.109c0-0.44-0.121-1.232-1.211-1.232
		c-0.494,0-1.012,0.154-1.386,0.396l-0.22-0.638c0.439-0.286,1.078-0.473,1.749-0.473c1.628,0,2.024,1.11,2.024,2.178v1.991
		c0,0.462,0.021,0.913,0.088,1.276H49.857z M49.715,56.949c-1.057-0.021-2.256,0.165-2.256,1.199c0,0.627,0.419,0.925,0.914,0.925
		c0.693,0,1.133-0.44,1.287-0.892c0.033-0.099,0.055-0.209,0.055-0.308V56.949z"/>
	<path fill="#00D1B1" d="M52.211,51.855h0.969v7.812h-0.969V51.855z"/>
	<path fill="#00D1B1" d="M28.16,68.983c0-0.55-0.011-1.001-0.044-1.441h0.847l0.044,0.858h0.033
		c0.297-0.506,0.792-0.979,1.672-0.979c0.726,0,1.276,0.439,1.507,1.066h0.022c0.165-0.297,0.374-0.527,0.594-0.692
		c0.319-0.242,0.671-0.374,1.177-0.374c0.704,0,1.75,0.462,1.75,2.31v3.136h-0.946v-3.015c0-1.022-0.374-1.639-1.155-1.639
		c-0.55,0-0.979,0.406-1.144,0.88c-0.044,0.132-0.077,0.308-0.077,0.484v3.289h-0.946v-3.19c0-0.847-0.374-1.463-1.111-1.463
		c-0.605,0-1.045,0.483-1.199,0.968c-0.055,0.143-0.077,0.308-0.077,0.473v3.213H28.16V68.983z"/>
	<path fill="#00D1B1" d="M37.873,70.38c0.022,1.31,0.858,1.849,1.826,1.849c0.693,0,1.111-0.121,1.474-0.275l0.165,0.693
		c-0.341,0.153-0.924,0.33-1.771,0.33c-1.64,0-2.619-1.078-2.619-2.685s0.946-2.871,2.498-2.871c1.738,0,2.2,1.528,2.2,2.508
		c0,0.198-0.022,0.353-0.033,0.451H37.873z M40.711,69.687c0.011-0.616-0.253-1.573-1.342-1.573c-0.979,0-1.408,0.902-1.485,1.573
		H40.711z"/>
	<path fill="#00D1B1" d="M47.443,65.055v6.437c0,0.473,0.012,1.012,0.045,1.375h-0.869l-0.045-0.924h-0.021
		c-0.297,0.594-0.946,1.045-1.815,1.045c-1.287,0-2.277-1.089-2.277-2.706c-0.011-1.771,1.089-2.86,2.388-2.86
		c0.814,0,1.363,0.385,1.605,0.813h0.022v-3.18H47.443z M46.476,69.709c0-0.121-0.011-0.286-0.044-0.407
		c-0.143-0.616-0.671-1.122-1.397-1.122c-1.001,0-1.595,0.88-1.595,2.058c0,1.078,0.527,1.969,1.572,1.969
		c0.65,0,1.244-0.429,1.42-1.155c0.033-0.132,0.044-0.264,0.044-0.418V69.709z"/>
	<path fill="#00D1B1" d="M50.127,66.045c0.011,0.33-0.23,0.595-0.616,0.595c-0.341,0-0.583-0.265-0.583-0.595
		c0-0.341,0.253-0.604,0.605-0.604C49.896,65.441,50.127,65.705,50.127,66.045z M49.049,72.867v-5.325h0.969v5.325H49.049z"/>
	<path fill="#00D1B1" d="M54.571,72.867l-0.077-0.671h-0.033c-0.297,0.418-0.869,0.792-1.628,0.792
		c-1.078,0-1.628-0.759-1.628-1.529c0-1.287,1.145-1.991,3.201-1.98v-0.109c0-0.44-0.121-1.232-1.21-1.232
		c-0.495,0-1.013,0.153-1.386,0.396l-0.221-0.638c0.439-0.286,1.078-0.473,1.75-0.473c1.627,0,2.023,1.11,2.023,2.178v1.991
		c0,0.462,0.021,0.913,0.088,1.276H54.571z M54.428,70.149c-1.056-0.021-2.255,0.165-2.255,1.199c0,0.627,0.419,0.925,0.913,0.925
		c0.693,0,1.133-0.44,1.287-0.892c0.033-0.099,0.055-0.209,0.055-0.308V70.149z"/>
</g>
</svg>
